<svg xmlns="http://www.w3.org/2000/svg" width="1200" height="630" viewBox="0 0 1200 630">
  <rect width="1200" height="630" fill="#080c10"/>
  <rect x="0" y="0" width="1200" height="4" fill="#f5a623"/>
  <!-- grid lines -->
  <line x1="0" y1="630" x2="1200" y2="0" stroke="#1e2d3d" stroke-width="1"/>
  <line x1="0" y1="315" x2="1200" y2="315" stroke="#1e2d3d" stroke-width="1"/>
  <line x1="600" y1="0" x2="600" y2="630" stroke="#1e2d3d" stroke-width="1"/>
  <!-- radar circles -->
  <circle cx="920" cy="420" r="180" fill="none" stroke="#1e2d3d" stroke-width="1"/>
  <circle cx="920" cy="420" r="120" fill="none" stroke="#1e2d3d" stroke-width="1"/>
  <circle cx="920" cy="420" r="60"  fill="none" stroke="#1e2d3d" stroke-width="1"/>
  <circle cx="975" cy="360" r="6"   fill="#f5a623" opacity="0.8"/>
  <circle cx="870" cy="455" r="4"   fill="#39d353" opacity="0.8"/>
  <circle cx="960" cy="470" r="4"   fill="#58a6ff" opacity="0.8"/>
  <circle cx="920" cy="420" r="4"   fill="#f5a623"/>
  <!-- eyebrow -->
  <text x="80" y="190" font-family="Courier New, monospace" font-size="18" fill="#f5a623" letter-spacing="6">// BRAND VISIBILITY INTELLIGENCE</text>
  <!-- headline -->
  <text x="80" y="280" font-family="Courier New, monospace" font-size="64" font-weight="bold" fill="#e6edf3">TOP GUN</text>
  <text x="80" y="355" font-family="Courier New, monospace" font-size="64" font-weight="bold" fill="#f5a623">GEO-Lens</text>
  <!-- sub -->
  <text x="80" y="420" font-family="-apple-system, sans-serif" font-size="24" fill="#6e7681">Brand visibility auditing for LLMs and AI search.</text>
  <!-- pills -->
  <rect x="80" y="470" width="160" height="36" rx="4" fill="#1e2d3d"/>
  <text x="160" y="493" font-family="Courier New, monospace" font-size="14" fill="#f5a623" text-anchor="middle" letter-spacing="2">QUICK CHECK</text>
  <rect x="256" y="470" width="140" height="36" rx="4" fill="#1e2d3d"/>
  <text x="326" y="493" font-family="Courier New, monospace" font-size="14" fill="#58a6ff" text-anchor="middle" letter-spacing="2">FULL AUDIT</text>
  <!-- domain -->
  <text x="80" y="575" font-family="Courier New, monospace" font-size="16" fill="#6e7681" letter-spacing="2">top-gun-mcp-server.vercel.app</text>
</svg>
